<?xml version="1.0" encoding="UTF-8"?>
<svg viewBox="0 0 800 400" xmlns="http://www.w3.org/2000/svg">
    <!-- PV와 PVC 다이어그램 -->
    <rect x="50" y="50" width="700" height="300" rx="10" fill="#f0f8ff" stroke="#326ce5" stroke-width="2"/>
    <text x="400" y="30" text-anchor="middle" font-size="16" font-weight="bold">쿠버네티스 PV &amp; PVC 구조</text>
    
    <!-- Pod -->
    <rect x="100" y="100" width="160" height="120" rx="5" fill="#e6f0ff" stroke="#326ce5" stroke-width="2"/>
    <text x="180" y="90" text-anchor="middle" font-size="14" font-weight="bold">Pod</text>
    <rect x="120" y="120" width="120" height="80" rx="3" fill="#326ce5" stroke="none"/>
    <text x="180" y="160" text-anchor="middle" font-size="12" fill="white">Container</text>
    <text x="180" y="180" text-anchor="middle" font-size="10" fill="white">Volume Mount</text>
    
    <!-- PVC -->
    <rect x="320" y="100" width="160" height="120" rx="5" fill="#e6f0ff" stroke="#326ce5" stroke-width="2"/>
    <text x="400" y="90" text-anchor="middle" font-size="14" font-weight="bold">PersistentVolumeClaim</text>
    <rect x="340" y="120" width="120" height="80" rx="3" fill="#54b4eb" stroke="none"/>
    <text x="400" y="160" text-anchor="middle" font-size="12" fill="white">Storage Request</text>
    <text x="400" y="180" text-anchor="middle" font-size="10" fill="white">5Gi</text>
    
    <!-- PV -->
    <rect x="540" y="100" width="160" height="120" rx="5" fill="#e6f0ff" stroke="#326ce5" stroke-width="2"/>
    <text x="620" y="90" text-anchor="middle" font-size="14" font-weight="bold">PersistentVolume</text>
    <rect x="560" y="120" width="120" height="80" rx="3" fill="#326ce5" stroke="none"/>
    <text x="620" y="160" text-anchor="middle" font-size="12" fill="white">Storage Capacity</text>
    <text x="620" y="180" text-anchor="middle" font-size="10" fill="white">10Gi</text>
    
    <!-- Storage Class -->
    <rect x="320" y="270" width="160" height="60" rx="5" fill="#e6f0ff" stroke="#326ce5" stroke-width="2"/>
    <text x="400" y="260" text-anchor="middle" font-size="14" font-weight="bold">StorageClass</text>
    <rect x="340" y="285" width="120" height="30" rx="3" fill="#ff9e64" stroke="none"/>
    <text x="400" y="305" text-anchor="middle" font-size="12" fill="white">Provisioner</text>
    
    <!-- 연결선 -->
    <line x1="260" y1="160" x2="320" y2="160" stroke="#326ce5" stroke-width="2"/>
    <polygon points="310,155 320,160 310,165" fill="#326ce5"/>
    
    <line x1="480" y1="160" x2="540" y2="160" stroke="#326ce5" stroke-width="2"/>
    <polygon points="530,155 540,160 530,165" fill="#326ce5"/>
    
    <line x1="400" y1="220" x2="400" y2="270" stroke="#326ce5" stroke-width="2" stroke-dasharray="5,5"/>
    <polygon points="395,260 400,270 405,260" fill="#326ce5"/>
    
    <line x1="400" y1="270" x2="550" y2="220" stroke="#326ce5" stroke-width="2" stroke-dasharray="5,5"/>
    <polygon points="540,222 550,220 545,230" fill="#326ce5"/>
    
    <!-- 설명 텍스트 -->
    <text x="290" y="150" text-anchor="middle" font-size="10">사용 요청</text>
    <text x="510" y="150" text-anchor="middle" font-size="10">바인딩</text>
    <text x="420" y="240" text-anchor="middle" font-size="10">정의</text>
    <text x="480" y="250" text-anchor="middle" font-size="10">프로비저닝</text>
</svg>